<?xml version="1.0" standalone="no"?>
<!DOCTYPE svg PUBLIC "-//W3C//DTD SVG 20010904//EN"
 "http://www.w3.org/TR/2001/REC-SVG-20010904/DTD/svg10.dtd">
<svg version="1.0" xmlns="http://www.w3.org/2000/svg"
 width="512.000000pt" height="512.000000pt" viewBox="0 0 512.000000 512.000000"
 preserveAspectRatio="xMidYMid meet">

<g transform="translate(0.000000,512.000000) scale(0.100000,-0.100000)"
fill="#000000" stroke="none">
<path d="M1507 3868 c-10 -17 -14 -35 -10 -39 4 -4 175 -111 378 -239 408
-255 464 -292 465 -301 0 -4 -147 71 -327 165 -181 95 -421 221 -535 280
l-208 107 -17 -35 c-9 -20 -15 -37 -12 -39 2 -2 180 -95 394 -207 215 -112
462 -241 549 -288 128 -68 163 -82 175 -73 78 56 272 62 373 12 l40 -19 361
192 c199 106 441 234 537 284 225 118 205 103 186 141 -9 17 -19 31 -23 31 -8
0 -201 -101 -686 -357 -203 -108 -370 -193 -373 -190 -4 4 292 195 703 453 79
49 143 94 143 99 0 6 -9 21 -19 34 l-19 24 -43 -25 c-24 -15 -232 -146 -463
-291 l-418 -265 -102 0 -101 0 -462 289 c-254 159 -463 289 -465 289 -2 0 -11
-14 -21 -32z"/>
<path d="M3397 3453 l-558 -285 7 -947 c4 -520 7 -947 8 -948 1 -1 250 134
554 299 l552 302 0 933 c0 513 -1 933 -2 932 -2 0 -254 -129 -561 -286z"/>
<path d="M1162 2780 l3 -952 550 -279 c303 -153 553 -279 558 -279 4 0 7 427
7 948 l0 948 -560 283 -560 282 2 -951z"/>
<path d="M2340 2209 l0 -949 23 -14 c40 -26 172 -39 281 -27 54 6 106 16 117
21 18 10 19 36 19 961 0 901 -1 951 -17 944 -83 -31 -330 -33 -391 -2 l-32 15
0 -949z"/>
</g>
</svg>
